<svg xmlns="http://www.w3.org/2000/svg" width="900" height="300" viewBox="0 0 900 300">
  <defs>
    <linearGradient id="bg" x1="0%" y1="0%" x2="100%" y2="100%">
      <stop offset="0%" style="stop-color:#0a0a0a"/>
      <stop offset="100%" style="stop-color:#1a1a2e"/>
    </linearGradient>
    <linearGradient id="accent" x1="0%" y1="0%" x2="100%" y2="0%">
      <stop offset="0%" style="stop-color:#00d26a"/>
      <stop offset="100%" style="stop-color:#00b4d8"/>
    </linearGradient>
  </defs>

  <rect width="900" height="300" rx="16" fill="url(#bg)"/>

  <rect x="60" y="85" width="48" height="48" rx="10" fill="url(#accent)"/>
  <text x="84" y="120" font-family="system-ui, -apple-system, sans-serif" font-size="24" font-weight="700" fill="#0a0a0a" text-anchor="middle">AC</text>

  <text x="124" y="118" font-family="system-ui, -apple-system, sans-serif" font-size="36" font-weight="700" fill="#ffffff">AI Champions</text>

  <text x="60" y="168" font-family="system-ui, -apple-system, sans-serif" font-size="20" fill="#a0a0b0">Skill Library</text>

  <text x="60" y="210" font-family="system-ui, -apple-system, sans-serif" font-size="15" fill="#707080">Reusable AI skills in</text>
  <rect x="227" y="196" width="40" height="22" rx="4" fill="#2a2a3e"/>
  <text x="247" y="212" font-family="ui-monospace, monospace" font-size="13" fill="#00d26a" text-anchor="middle">.md</text>
  <text x="275" y="210" font-family="system-ui, -apple-system, sans-serif" font-size="15" fill="#707080"> load into Cursor, Claude, or ChatGPT in one click.</text>

  <circle cx="720" cy="100" r="60" fill="none" stroke="#1e1e32" stroke-width="1.5"/>
  <circle cx="780" cy="160" r="45" fill="none" stroke="#1e1e32" stroke-width="1.5"/>
  <circle cx="810" cy="90" r="30" fill="none" stroke="#1e1e32" stroke-width="1.5"/>
  <circle cx="750" cy="200" r="25" fill="none" stroke="#1e1e32" stroke-width="1.5"/>

  <g transform="translate(700, 80)">
    <rect width="56" height="68" rx="4" fill="#1e1e32" stroke="#2a2a3e" stroke-width="1"/>
    <rect x="8" y="8" width="24" height="3" rx="1.5" fill="#00d26a" opacity="0.8"/>
    <rect x="8" y="16" width="40" height="2" rx="1" fill="#404050" opacity="0.5"/>
    <rect x="8" y="22" width="35" height="2" rx="1" fill="#404050" opacity="0.5"/>
    <rect x="8" y="28" width="38" height="2" rx="1" fill="#404050" opacity="0.5"/>
    <rect x="8" y="36" width="20" height="3" rx="1.5" fill="#00b4d8" opacity="0.6"/>
    <rect x="8" y="44" width="40" height="2" rx="1" fill="#404050" opacity="0.5"/>
    <rect x="8" y="50" width="30" height="2" rx="1" fill="#404050" opacity="0.5"/>
    <rect x="8" y="56" width="36" height="2" rx="1" fill="#404050" opacity="0.5"/>
  </g>

  <g transform="translate(775, 130)">
    <rect width="48" height="58" rx="4" fill="#1e1e32" stroke="#2a2a3e" stroke-width="1"/>
    <rect x="7" y="7" width="20" height="3" rx="1.5" fill="#00d26a" opacity="0.8"/>
    <rect x="7" y="14" width="34" height="2" rx="1" fill="#404050" opacity="0.5"/>
    <rect x="7" y="20" width="30" height="2" rx="1" fill="#404050" opacity="0.5"/>
    <rect x="7" y="28" width="16" height="3" rx="1.5" fill="#00b4d8" opacity="0.6"/>
    <rect x="7" y="36" width="34" height="2" rx="1" fill="#404050" opacity="0.5"/>
    <rect x="7" y="42" width="28" height="2" rx="1" fill="#404050" opacity="0.5"/>
    <rect x="7" y="48" width="32" height="2" rx="1" fill="#404050" opacity="0.5"/>
  </g>

  <g transform="translate(820, 65)">
    <rect width="40" height="48" rx="4" fill="#1e1e32" stroke="#2a2a3e" stroke-width="1"/>
    <rect x="6" y="6" width="18" height="3" rx="1.5" fill="#00d26a" opacity="0.8"/>
    <rect x="6" y="13" width="28" height="2" rx="1" fill="#404050" opacity="0.5"/>
    <rect x="6" y="19" width="24" height="2" rx="1" fill="#404050" opacity="0.5"/>
    <rect x="6" y="27" width="14" height="3" rx="1.5" fill="#00b4d8" opacity="0.6"/>
    <rect x="6" y="35" width="28" height="2" rx="1" fill="#404050" opacity="0.5"/>
    <rect x="6" y="41" width="22" height="2" rx="1" fill="#404050" opacity="0.5"/>
  </g>
</svg>
